HIERARCHY
ROOT Hips
{
    OFFSET   0.000000   0.000000   0.000000
    CHANNELS 6 Xposition Yposition Zposition Zrotation Xrotation Yrotation
    JOINT Chest
    {
        OFFSET   0.000000   8.007230   0.000000
        CHANNELS 3 Zrotation Xrotation Yrotation
        JOINT Chest2
        {
            OFFSET   0.000000  22.077100   0.000000
            CHANNELS 3 Zrotation Xrotation Yrotation
            JOINT Neck
            {
                OFFSET   0.000000  23.255100   0.000000
                CHANNELS 3 Zrotation Xrotation Yrotation
                JOINT Head
                {
                    OFFSET   0.000000  14.370100   1.956600
                    CHANNELS 3 Zrotation Xrotation Yrotation
                    End Site
                    {
                        OFFSET   0.000000  19.566000   0.000000
                    }
                }
            }
            JOINT LeftCollar
            {
                OFFSET   3.911900  19.017000  -0.467063
                CHANNELS 3 Zrotation Xrotation Yrotation
                JOINT LeftShoulder
                {
                    OFFSET  10.383700   0.000000   0.000000
                    CHANNELS 3 Zrotation Xrotation Yrotation
                    JOINT LeftElbow
                    {
                        OFFSET  26.662100   0.001193   0.000980
                        CHANNELS 3 Zrotation Xrotation Yrotation
                        JOINT LeftWrist
                        {
                            OFFSET  28.869000  -0.000059  -0.000082
                            CHANNELS 3 Zrotation Xrotation Yrotation
                            JOINT LeftFinger0
                            {
                                OFFSET   2.044650  -2.323450   3.252850
                                CHANNELS 3 Zrotation Xrotation Yrotation
                                JOINT LeftFinger01
                                {
                                    OFFSET   3.088130   0.000000   0.000000
                                    CHANNELS 3 Zrotation Xrotation Yrotation
                                    JOINT LeftFinger02
                                    {
                                        OFFSET   2.639460   0.000000   0.000000
                                        CHANNELS 3 Zrotation Xrotation Yrotation
                                        End Site
                                        {
                                            OFFSET   2.582190   0.000000   0.000000
                                        }
                                    }
                                }
                            }
                            JOINT LeftFinger1
                            {
                                OFFSET   8.364480   0.000000   3.252850
                                CHANNELS 3 Zrotation Xrotation Yrotation
                                JOINT LeftFinger11
                                {
                                    OFFSET   4.646930   0.000000   0.000000
                                    CHANNELS 3 Zrotation Xrotation Yrotation
                                    JOINT LeftFinger12
                                    {
                                        OFFSET   2.323470   0.000000   0.000000
                                        CHANNELS 3 Zrotation Xrotation Yrotation
                                        End Site
                                        {
                                            OFFSET   2.273050   0.000000   0.000000
                                        }
                                    }
                                }
                            }
                            JOINT LeftFinger2
                            {
                                OFFSET   8.364490   0.000016   1.078090
                                CHANNELS 3 Zrotation Xrotation Yrotation
                                JOINT LeftFinger21
                                {
                                    OFFSET   5.111610   0.000000   0.000000
                                    CHANNELS 3 Zrotation Xrotation Yrotation
                                    JOINT LeftFinger22
                                    {
                                        OFFSET   2.788150   0.000016   0.000000
                                        CHANNELS 3 Zrotation Xrotation Yrotation
                                        End Site
                                        {
                                            OFFSET   2.727660   0.000000   0.000000
                                        }
                                    }
                                }
                            }
                            JOINT LeftFinger3
                            {
                                OFFSET   7.899780   0.000015  -1.078090
                                CHANNELS 3 Zrotation Xrotation Yrotation
                                JOINT LeftFinger31
                                {
                                    OFFSET   4.646930   0.000000   0.000000
                                    CHANNELS 3 Zrotation Xrotation Yrotation
                                    JOINT LeftFinger32
                                    {
                                        OFFSET   2.323470   0.000000   0.000000
                                        CHANNELS 3 Zrotation Xrotation Yrotation
                                        End Site
                                        {
                                            OFFSET   2.273050   0.000000   0.000000
                                        }
                                    }
                                }
                            }
                            JOINT LeftFinger4
                            {
                                OFFSET   7.435090   0.000000  -3.252850
                                CHANNELS 3 Zrotation Xrotation Yrotation
                                JOINT LeftFinger41
                                {
                                    OFFSET   3.717550   0.000000   0.000000
                                    CHANNELS 3 Zrotation Xrotation Yrotation
                                    JOINT LeftFinger42
                                    {
                                        OFFSET   1.858770   0.000000   0.000000
                                        CHANNELS 3 Zrotation Xrotation Yrotation
                                        End Site
                                        {
                                            OFFSET   1.818440   0.000000   0.000000
                                        }
                                    }
                                }
                            }
                        }
                    }
                }
            }
            JOINT RightCollar
            {
                OFFSET  -3.911910  19.017000  -0.467062
                CHANNELS 3 Zrotation Xrotation Yrotation
                JOINT RightShoulder
                {
                    OFFSET -10.383700   0.000014   0.000000
                    CHANNELS 3 Zrotation Xrotation Yrotation
                    JOINT RightElbow
                    {
                        OFFSET -26.662100   0.001225   0.001091
                        CHANNELS 3 Zrotation Xrotation Yrotation
                        JOINT RightWrist
                        {
                            OFFSET -28.869000  -0.000020  -0.000085
                            CHANNELS 3 Zrotation Xrotation Yrotation
                            JOINT RightFinger0
                            {
                                OFFSET  -2.044650  -2.323490   3.252850
                                CHANNELS 3 Zrotation Xrotation Yrotation
                                JOINT RightFinger01
                                {
                                    OFFSET  -3.088130   0.000000   0.000000
                                    CHANNELS 3 Zrotation Xrotation Yrotation
                                    JOINT RightFinger02
                                    {
                                        OFFSET  -2.639460   0.000000   0.000000
                                        CHANNELS 3 Zrotation Xrotation Yrotation
                                        End Site
                                        {
                                            OFFSET  -2.582190   0.000000   0.000000
                                        }
                                    }
                                }
                            }
                            JOINT RightFinger1
                            {
                                OFFSET  -8.364480   0.000000   3.252850
                                CHANNELS 3 Zrotation Xrotation Yrotation
                                JOINT RightFinger11
                                {
                                    OFFSET  -4.646930   0.000000   0.000000
                                    CHANNELS 3 Zrotation Xrotation Yrotation
                                    JOINT RightFinger12
                                    {
                                        OFFSET  -2.323470   0.000000   0.000000
                                        CHANNELS 3 Zrotation Xrotation Yrotation
                                        End Site
                                        {
                                            OFFSET  -2.273050   0.000000   0.000000
                                        }
                                    }
                                }
                            }
                            JOINT RightFinger2
                            {
                                OFFSET  -8.364480   0.000000   1.078090
                                CHANNELS 3 Zrotation Xrotation Yrotation
                                JOINT RightFinger21
                                {
                                    OFFSET  -5.111620   0.000000   0.000000
                                    CHANNELS 3 Zrotation Xrotation Yrotation
                                    JOINT RightFinger22
                                    {
                                        OFFSET  -2.788160   0.000000   0.000000
                                        CHANNELS 3 Zrotation Xrotation Yrotation
                                        End Site
                                        {
                                            OFFSET  -2.727660   0.000000   0.000000
                                        }
                                    }
                                }
                            }
                            JOINT RightFinger3
                            {
                                OFFSET  -7.899780   0.000000  -1.078090
                                CHANNELS 3 Zrotation Xrotation Yrotation
                                JOINT RightFinger31
                                {
                                    OFFSET  -4.646930   0.000000   0.000000
                                    CHANNELS 3 Zrotation Xrotation Yrotation
                                    JOINT RightFinger32
                                    {
                                        OFFSET  -2.323470   0.000000   0.000000
                                        CHANNELS 3 Zrotation Xrotation Yrotation
                                        End Site
                                        {
                                            OFFSET  -2.273050   0.000000   0.000000
                                        }
                                    }
                                }
                            }
                            JOINT RightFinger4
                            {
                                OFFSET  -7.435090   0.000000  -3.252850
                                CHANNELS 3 Zrotation Xrotation Yrotation
                                JOINT RightFinger41
                                {
                                    OFFSET  -3.717550   0.000000   0.000000
                                    CHANNELS 3 Zrotation Xrotation Yrotation
                                    JOINT RightFinger42
                                    {
                                        OFFSET  -1.858760   0.000000   0.000000
                                        CHANNELS 3 Zrotation Xrotation Yrotation
                                        End Site
                                        {
                                            OFFSET  -1.818440   0.000000   0.000000
                                        }
                                    }
                                }
                            }
                        }
                    }
                }
            }
        }
    }
    JOINT LeftHip
    {
        OFFSET   9.783030   0.000000   0.000000
        CHANNELS 3 Zrotation Xrotation Yrotation
        JOINT LeftKnee
        {
            OFFSET   0.000063 -41.789100   0.000608
            CHANNELS 3 Zrotation Xrotation Yrotation
            JOINT LeftAnkle
            {
                OFFSET   0.000048 -41.133200  -0.000184
                CHANNELS 3 Zrotation Xrotation Yrotation
                JOINT LeftToe
                {
                    OFFSET   0.000000  -6.358960  14.674500
                    CHANNELS 3 Zrotation Xrotation Yrotation
                    End Site
                    {
                        OFFSET   0.000000   0.000000   3.913200
                    }
                }
            }
        }
    }
    JOINT RightHip
    {
        OFFSET  -9.783030   0.000000   0.000000
        CHANNELS 3 Zrotation Xrotation Yrotation
        JOINT RightKnee
        {
            OFFSET   0.000071 -41.789100   0.001239
            CHANNELS 3 Zrotation Xrotation Yrotation
            JOINT RightAnkle
            {
                OFFSET   0.000037 -41.133200  -0.000166
                CHANNELS 3 Zrotation Xrotation Yrotation
                JOINT RightToe
                {
                    OFFSET   0.000000  -6.358960  14.674500
                    CHANNELS 3 Zrotation Xrotation Yrotation
                    End Site
                    {
                        OFFSET   0.000000   0.000000   3.913200
                    }
                }
            }
        }
    }
}
MOTION
Frames: 4
Frame Time:   0.016667
 -1.013610  89.552700   1.914340  -1.552610  -8.173540  -1.932770   0.689928   4.660740  -0.014685   1.387990   9.321010  -0.086328   0.843442  -0.018708  -0.003025   1.385640  -0.037830   5.383480  -4.828530   0.939392   2.796410 -73.443300  20.478200  -4.580390  -2.784470 -10.638500 -15.448100  11.629200 -12.368900   7.333400  40.143300  31.565600 -62.164300 -28.761600   0.002840   0.001647  -9.380780   0.003738  -0.004452 -30.623900   6.831990 -11.363800 -25.612800  -0.005577  -0.001737 -17.929000  -0.002749  -0.002199 -28.411700   0.369303  -0.682639 -35.249200  -0.009572  -0.009323 -23.476000  -0.003575  -0.009420 -27.804200   0.362013  -0.686530 -30.805200  -0.003692  -0.002094 -20.516300  -0.001839  -0.002142 -24.610300   0.042858  -0.093564 -36.915600  -0.000607  -0.000807 -24.585700  -0.001860  -0.008150   9.851170   2.631150   7.073130  65.986400  22.932300   1.460720  -0.857194  -5.476160  11.585000 -11.878900 -12.848800  -2.819730 -38.270900  30.461600  61.200000  30.958600   0.001213  -0.005030  10.488600   0.000485  -0.003575  28.926100   9.824080  17.158200  24.882300  -0.003055   0.000343  17.417600   0.002464   0.001710  28.003800   5.419410  10.070700  35.907900  -0.008038   0.009602  23.914700  -0.003672   0.006458  26.757700   1.703070   3.360310  26.807900  -0.003873   0.008800  17.854000   0.000000   0.007179  31.810100   0.915135   1.475170  47.732700  -0.007545   0.008017  31.790000  -0.015132   0.002018   1.871000  10.335600   4.586810   1.143180   0.105628  11.078100  -2.365750  -2.945850   2.388180  -0.000000   0.000000   0.000000   2.996440  10.619700  -0.780164   0.154087   1.073750  -9.109340  -1.589540  -5.322900  -2.522060   0.000000   0.000000   0.000000
 -1.013660  89.552700   1.921470  -1.553730  -8.173540  -1.933090   0.686608   4.660470  -0.012243   1.381110   9.320500  -0.081142   0.823041  -0.023215  -0.003025   1.352110  -0.047186   5.410330  -4.829460   0.944060   2.796420 -73.448000  20.542100  -4.610090  -2.780640 -10.673900 -15.423100  11.636000 -12.362800   7.342860  40.164800  31.586200 -62.188300 -28.761800   0.002833   0.001635  -9.380900   0.003737  -0.004452 -30.624200   6.833150 -11.365700 -25.613300  -0.005569  -0.001733 -17.929300  -0.002745  -0.002194 -28.415100   0.363913  -0.672546 -35.282300  -0.009552  -0.009307 -23.498100  -0.003556  -0.009405 -27.804300   0.356693  -0.676402 -30.807500  -0.003679  -0.002087 -20.517800  -0.001833  -0.002133 -24.597000   0.047155  -0.103030 -36.895600  -0.000599  -0.000787 -24.572300  -0.001842  -0.008150   9.851950   2.625860   7.071400  65.986200  22.938900   1.438370  -0.849055  -5.470240  11.590700 -11.879600 -12.841700  -2.808820 -38.276300  30.472900  61.201300  30.958300   0.001205  -0.005025  10.488500   0.000486  -0.003577  28.903100   9.813050  17.157500  24.862100  -0.003055   0.000311  17.403400   0.002467   0.001709  28.003800   5.419400  10.071000  35.886700  -0.008047   0.009599  23.900600  -0.003677   0.006451  26.749300   1.703060   3.364930  26.799400  -0.003874   0.008795  17.848300   0.000000   0.007175  31.802800   0.915155   1.475290  47.721700  -0.007551   0.008017  31.782700  -0.015133   0.002012   1.870280  10.340700   4.586900   1.143960   0.106899  11.078100  -2.365680  -2.955480   2.388200  -0.000000   0.000000  -0.000000   2.996500  10.624300  -0.780170   0.154056   1.076650  -9.109330  -1.589450  -5.327450  -2.519370  -0.000000   0.000000   0.000000
 -1.013710  89.552800   1.933520  -1.555920  -8.173540  -1.933410   0.681305   4.660200  -0.008859   1.370170   9.319980  -0.073901   0.790257  -0.029682  -0.003023   1.298240  -0.060544   5.450220  -4.832680   0.954327   2.796430 -73.454300  20.653400  -4.665340  -2.767830 -10.716100 -15.381400  11.653400 -12.351700   7.356060  40.187700  31.615600 -62.222600 -28.762100   0.002806   0.001606  -9.381020   0.003730  -0.004450 -30.627200   6.839520 -11.373300 -25.616500  -0.005555  -0.001721 -17.931600  -0.002735  -0.002180 -28.421000   0.358524  -0.662454 -35.340000  -0.009507  -0.009265 -23.536500  -0.003511  -0.009366 -27.804400   0.351372  -0.666274 -30.820500  -0.003648  -0.002068 -20.526500  -0.001818  -0.002112 -24.583600   0.056151  -0.122758 -36.875500  -0.000577  -0.000738 -24.559000  -0.001796  -0.008149   9.852900   2.620430   7.066430  65.985100  22.953000   1.409250  -0.838076  -5.459660  11.596400 -11.884600 -12.834800  -2.793340 -38.281500  30.484600  61.202200  30.958000   0.001189  -0.005014  10.488500   0.000490  -0.003582  28.869700   9.800240  17.156800  24.833200  -0.003055   0.000249  17.383200   0.002472   0.001708  28.003700   5.419370  10.071200  35.865500  -0.008072   0.009592  23.886400  -0.003690   0.006434  26.740700   1.703040   3.375750  26.790900  -0.003883   0.008783  17.842700   0.000000   0.007164  31.795500   0.915200   1.475470  47.710700  -0.007567   0.008016  31.775300  -0.015138   0.001997   1.868560  10.357900   4.587230   1.144750   0.108170  11.078400  -2.365600  -2.965110   2.388200   0.000000   0.000000   0.000000   2.996630  10.634300  -0.780156   0.154026   1.079560  -9.109330  -1.589230  -5.334040  -2.516690  -0.000000   0.000000   0.000000
 -1.011030  89.552700   1.943680  -1.558100  -8.176770  -1.931310   0.677283   4.660760  -0.007731   1.362000   9.321120  -0.071311   0.766528  -0.032203  -0.003021   1.259270  -0.065562   5.475530  -4.836550   0.972058   2.794860 -73.455900  20.758800  -4.724590  -2.748040 -10.722200 -15.340200  11.689800 -12.343900   7.361770  40.175900  31.623300 -62.247700 -28.762000   0.002748   0.001564  -9.380990   0.003712  -0.004446 -30.643900   6.855220 -11.390400 -25.632200  -0.005546  -0.001697 -17.942600  -0.002723  -0.002158 -28.426200   0.365003  -0.674390 -35.392300  -0.009440  -0.009199 -23.571300  -0.003440  -0.009305 -27.809000   0.357732  -0.678275 -30.852700  -0.003600  -0.002037 -20.548000  -0.001796  -0.002080 -24.592300   0.068419  -0.149438 -36.888500  -0.000543  -0.000662 -24.567700  -0.001727  -0.008149   9.853270   2.620370   7.057360  65.983500  22.971700   1.402670  -0.835069  -5.447010  11.588000 -11.899100 -12.837200  -2.789440 -38.274500  30.464700  61.180000  30.957800   0.001173  -0.005002  10.488300   0.000503  -0.003591  28.852300   9.797940  17.160600  24.818800  -0.003052   0.000177  17.373100   0.002478   0.001711  28.003800   5.419360  10.069700  35.872200  -0.008115   0.009577  23.890900  -0.003708   0.006409  26.747300   1.710280   3.392170  26.798000  -0.003902   0.008765  17.847400   0.000000   0.007143  31.800800   0.915267   1.475540  47.718700  -0.007596   0.008014  31.780700  -0.015145   0.001975   1.865530  10.395200   4.588140   1.144920   0.056272  11.079300  -2.361700  -2.947720   2.384390  -0.000000   0.000000   0.000000   2.996440  10.646800  -0.777889   0.153957   1.077880  -9.109320  -1.588570  -5.337000  -2.524090   0.000000   0.000000  -0.000000
